4d54 6864 0000 0006 0000 0001 0060 4d54
726b 0000 02e4 00ff 030c 6b69 6d62 7261
206d 6964 6900 00ff 5804 0402 2408 00ff
5804 0402 2408 0090 3c64 0090 4564 0090
4764 1880 3c40 0080 4540 0080 4740 1890
3d64 1880 3d40 1890 3e64 0090 4864 1880
3e40 0080 4840 1890 3f64 0090 4564 1880
3f40 0080 4540 1890 3c64 0090 4564 0090
4964 1880 3c40 0080 4540 0080 4940 1890
3d64 1880 3d40 1890 3e64 0090 4564 1880
3e40 0080 4540 1890 3f64 0090 4764 1880
3f40 1890 3c64 0080 4740 1880 3c40 1890
3d64 0090 4864 1880 3d40 1890 3e64 0090
4564 0080 4840 1880 3e40 0080 4540 1890
3f64 1880 3f40 1890 3c64 0090 4964 0090
4a64 1880 3c40 0080 4940 0080 4a40 1890
3d64 1880 3d40 1890 3e64 1880 3e40 1890
3f64 1880 3f40 1890 3c64 0090 4564 0090
4764 1880 3c40 0080 4540 0080 4740 1890
3d64 1880 3d40 1890 3e64 0090 4864 1880
3e40 0080 4840 1890 3f64 0090 4564 1880
3f40 0080 4540 1890 3c64 0090 4564 0090
4964 1880 3c40 0080 4540 0080 4940 1890
3d64 1880 3d40 1890 3e64 0090 4564 1880
3e40 0080 4540 1890 3f64 0090 4764 1880
3f40 1890 3c64 0080 4740 1880 3c40 1890
3d64 0090 4864 1880 3d40 1890 3e64 0090
4564 0080 4840 1880 3e40 0080 4540 1890
3f64 1880 3f40 1890 3c64 0090 4964 0090
4a64 1880 3c40 0080 4940 0080 4a40 1890
3d64 1880 3d40 1890 3e64 1880 3e40 1890
3f64 1880 3f40 1890 3c64 0090 4564 0090
4764 1880 3c40 0080 4540 0080 4740 1890
3d64 1880 3d40 1890 3e64 0090 4864 1880
3e40 0080 4840 1890 3f64 0090 4564 1880
3f40 0080 4540 1890 3c64 0090 4564 0090
4964 1880 3c40 0080 4540 0080 4940 1890
3d64 1880 3d40 1890 3e64 0090 4564 1880
3e40 0080 4540 1890 3f64 0090 4764 1880
3f40 1890 3c64 0080 4740 1880 3c40 1890
3d64 0090 4864 1880 3d40 1890 3e64 0090
4564 0080 4840 1880 3e40 0080 4540 1890
3f64 1880 3f40 1890 3c64 0090 4964 0090
4a64 1880 3c40 0080 4940 0080 4a40 1890
3d64 1880 3d40 1890 3e64 1880 3e40 1890
3f64 1880 3f40 1890 4864 1880 4840 4890
4864 1880 4840 4890 4a64 1880 4a40 7890
4a64 1880 4a40 00ff 2f00
